<?xml version="1.0" encoding="utf-8"?>
<!-- Generator: Adobe Illustrator 24.0.2, SVG Export Plug-In . SVG Version: 6.00 Build 0)  -->
<svg version="1.1" id="Warstwa_1" xmlns="http://www.w3.org/2000/svg" xmlns:xlink="http://www.w3.org/1999/xlink" x="0px" y="0px"
	 viewBox="0 0 254.7 254.7" style="enable-background:new 0 0 254.7 254.7;" xml:space="preserve">
<style type="text/css">
	.st0{fill:#090909;}
	.st1{fill:#FFFFFF;}
	.st2{fill:#43B66F;}
</style>
<circle class="st0" cx="127" cy="126.5" r="125"/>
<g>
	<path class="st1" d="M167,135.6c-5.9-2.3-9.1,0.9-10.4,2.6c-1.3,1.8-0.8,4.8-0.2,3.5c0.8-2.7,5.2-2.7,6.6,0
		c1.4,2.7-0.9,5.7-4.1,6.1c-4.2,0.6-6-2.9-8.5-5.8c-2.5-2.8-6.4-6-11.9-7.6c-3.6-1-8.5-0.2-11.6,2.7c-3.1-2.9-8-3.7-11.6-2.7
		c-5.5,1.6-9.4,4.8-11.9,7.6s-4.3,6.3-8.5,5.8c-3.2-0.4-5.5-3.4-4.1-6.1c1.4-2.7,5.8-2.7,6.6,0c0.6,1.3,1.1-1.7-0.2-3.5
		c-1.3-1.7-4.5-4.9-10.4-2.6c-5.7,2.3-8,10.7-5.2,16.6c3.8,8.2,14.6,12.4,25.9,11.3c8-0.7,14.3-5.4,19.4-13.1
		c5.1,7.7,11.4,12.4,19.4,13.1c11.3,1,22.1-3.1,25.9-11.3C175,146.4,172.8,137.9,167,135.6z"/>
	<path class="st1" d="M198.5,129.1L198.5,129.1c-0.6,6.9-4.6,13.2-10.7,16.7l-11.4,6.5c-0.2,0.5-0.4,1-0.6,1.5
		c-3.9,8.5-14.2,13.8-26.1,13.7l-12,6.9c-3.2,1.9-6.8,2.8-10.4,2.8c-0.1,0-0.2,0-0.3,0c-0.1,0-0.2,0-0.3,0c-3.6-0.1-7.2-1-10.4-2.9
		l-12-6.8l0,0c-11.9,0-22.1-5.3-26-13.7c-0.2-0.5-0.4-1-0.6-1.5l-11.5-6.6c-6.4-3.7-10.5-10.5-10.7-17.9c0,0,0,0,0,0.1
		c0,0.7-0.3,2.9-0.7,5.7c-1.5,10.7,0,21.7,4.5,31.6l0.9,2l15,16.8l-0.4-14.5c4.3,6.1,6.7,13.3,11.5,19.4c4.2,5.3,10.7,9.6,14.8,14.5
		l-0.9-16.9c2.7,13.9,11.3,26.8,19.8,38.9c4.3,4.9,7.1,7.9,7.1,7.9s3.2-3.5,8.3-9.2l0.1-0.1c9.6-11.8,17.7-24.2,21.6-38.2l-0.5,13.5
		c2.2-2.7,6.5-4.6,9.2-8.4c2.6-3.6,3.7-8.9,5.8-11.7l0.5,8.8l15.7-16l4.8-6.2c3-3.9,5.2-8.3,6.2-13.1
		C200.5,144.4,200.2,135.4,198.5,129.1z"/>
	<path class="st2" d="M185.5,50l-48.1-27.5c-6.4-3.7-14.3-3.7-20.6,0L68.6,50c-6.4,3.7-10.3,10.5-10.3,17.9v55
		c0,7.3,4,14.2,10.3,17.9l8.2,4.7c0.1-1.9,0.5-3.7,1.2-5.5c1.1-2.9,2.9-5.2,5.2-6.7l-7.8-4.4c-2.1-1.2-3.4-3.5-3.4-5.9V71.7
		l48.2,27.6v30.8c2.4,0.2,4.8,0.9,6.9,2.1c2.1-1.2,4.5-1.9,6.9-2.1V99.4l48.2-27.6V123c0,2.4-1.3,4.7-3.4,5.9l-7.8,4.4
		c2.2,1.5,4,3.8,5.2,6.7c0.7,1.8,1.1,3.6,1.2,5.5l8.2-4.7c6.4-3.7,10.3-10.5,10.3-17.8l0,0V68C195.8,60.5,191.9,53.7,185.5,50z
		 M127,87.5L79,59.9l44.6-25.5c1.1-0.6,2.2-0.9,3.4-0.9c1.2,0,2.4,0.3,3.5,0.9l44.6,25.5L127,87.5z"/>
	<path class="st2" d="M127,157c-4,4.7-8.6,7.9-13.6,9.4l3.3,1.9c3.1,1.8,6.6,2.7,10,2.7c0.1,0,0.2,0,0.3,0c0.1,0,0.2,0,0.3,0
		c3.5,0,6.9-1,10-2.7l3.3-1.9C135.6,164.8,131,161.7,127,157z"/>
</g>
</svg>
